<svg width="29" height="23" viewBox="0 0 29 23" fill="none" xmlns="http://www.w3.org/2000/svg">
<path d="M15.8225 2.59492C17.12 1.29037 18.9413 0.5 20.9611 0.5C24.9575 0.5 28.2191 3.73171 28.2191 7.66667C28.2191 9.2389 27.5673 10.8503 26.4995 12.4291C25.4336 14.0049 23.9774 15.5122 22.4289 16.8657C19.3319 19.5724 15.9252 21.6124 14.712 22.3061C14.5731 22.3855 14.4213 22.3853 14.2826 22.3054C13.07 21.607 9.66271 19.5532 6.56487 16.8407C5.01585 15.4843 3.55914 13.9761 2.49291 12.4034C1.42447 10.8275 0.773193 9.22402 0.773193 7.66667C0.773193 3.73171 4.03483 0.5 8.03118 0.5C10.051 0.5 11.8723 1.29037 13.1698 2.59492C13.8782 3.3071 15.1141 3.30709 15.8225 2.59492Z" stroke="black"/>
</svg>
