<svg width="25" height="27" viewBox="0 0 25 27" fill="none" xmlns="http://www.w3.org/2000/svg">
<path d="M24.4974 25.4022L21.1957 17.7717C21.1086 17.5711 20.9098 17.4412 20.6894 17.4412H17.5873C19.4917 14.8677 21.2397 11.7031 21.2397 8.72057C21.2397 3.91218 17.2899 0 12.435 0C7.5802 0 3.63033 3.91214 3.63033 8.72062C3.63033 11.7031 5.37834 14.8677 7.28281 17.4412H4.18064C3.96028 17.4412 3.76145 17.5711 3.67439 17.7718L0.37263 25.4023C0.300613 25.5705 0.317785 25.7637 0.419931 25.917C0.521012 26.0697 0.69402 26.1618 0.878876 26.1618H23.9912C24.1761 26.1618 24.3492 26.0697 24.4501 25.9169C24.5522 25.7637 24.5694 25.5705 24.4974 25.4022ZM4.73095 8.72062C4.73095 4.51305 8.18748 1.0901 12.435 1.0901C16.6826 1.0901 20.1391 4.5131 20.1391 8.72062C20.1391 13.9155 14.0171 20.0898 12.435 21.5976C10.8529 20.0898 4.73095 13.9155 4.73095 8.72062ZM1.71295 25.0717L4.54396 18.5313H8.12354C10.0519 20.9263 11.9056 22.6073 12.0664 22.7511C12.1717 22.8447 12.3028 22.8916 12.435 22.8916C12.5673 22.8916 12.6983 22.8447 12.8037 22.7511C12.9644 22.6073 14.8182 20.9263 16.7465 18.5313H20.3261L23.1571 25.0717H1.71295Z" fill="black"/>
<path d="M16.8374 8.72064C16.8374 6.31642 14.863 4.36035 12.4351 4.36035C10.0071 4.36035 8.03271 6.31642 8.03271 8.72064C8.03271 11.1249 10.0071 13.0809 12.4351 13.0809C14.863 13.0809 16.8374 11.1249 16.8374 8.72064ZM9.13329 8.72064C9.13329 6.91733 10.6144 5.45041 12.4351 5.45041C14.2558 5.45041 15.7368 6.91733 15.7368 8.72064C15.7368 10.5239 14.2558 11.9909 12.4351 11.9909C10.6144 11.9909 9.13329 10.5239 9.13329 8.72064Z" fill="black"/>
</svg>
