<svg width="33" height="33" viewBox="0 0 33 33" fill="none" xmlns="http://www.w3.org/2000/svg">
<path d="M19.4259 23.9826H14.1497C13.4501 23.9826 12.7791 23.7047 12.2843 23.2099C11.7896 22.7152 11.5117 22.0442 11.5117 21.3445V20.8169C11.5117 19.5575 12.0119 18.3497 12.9025 17.4592C13.793 16.5687 15.0008 16.0684 16.2602 16.0684H17.3154C18.5748 16.0684 19.7826 16.5687 20.6732 17.4592C21.5637 18.3497 22.064 19.5575 22.064 20.8169V21.3445C22.064 22.0442 21.786 22.7152 21.2913 23.2099C20.7966 23.7047 20.1256 23.9826 19.4259 23.9826ZM16.2602 17.1236C15.2807 17.1236 14.3413 17.5127 13.6486 18.2053C12.956 18.898 12.5669 19.8374 12.5669 20.8169V21.3445C12.5669 21.7643 12.7337 22.1669 13.0305 22.4638C13.3273 22.7606 13.7299 22.9274 14.1497 22.9274H19.4259C19.8457 22.9274 20.2483 22.7606 20.5451 22.4638C20.842 22.1669 21.0087 21.7643 21.0088 21.3445V20.8169C21.0088 19.8374 20.6196 18.898 19.927 18.2053C19.2344 17.5127 18.295 17.1236 17.3154 17.1236H16.2602Z" fill="white"/>
<path d="M16.7878 15.5406C16.1617 15.5406 15.5496 15.355 15.029 15.0071C14.5084 14.6593 14.1027 14.1648 13.863 13.5864C13.6234 13.0079 13.5608 12.3714 13.6829 11.7573C13.805 11.1432 14.1066 10.5792 14.5493 10.1364C14.992 9.69371 15.5561 9.39221 16.1702 9.27006C16.7843 9.14791 17.4208 9.2106 17.9992 9.4502C18.5777 9.68981 19.0721 10.0956 19.42 10.6162C19.7678 11.1368 19.9535 11.7488 19.9535 12.3749C19.9535 13.2145 19.6199 14.0197 19.0263 14.6134C18.4326 15.2071 17.6274 15.5406 16.7878 15.5406ZM16.7878 10.2645C16.3704 10.2645 15.9623 10.3882 15.6153 10.6201C15.2682 10.852 14.9977 11.1817 14.838 11.5673C14.6782 11.9529 14.6364 12.3773 14.7179 12.7867C14.7993 13.196 15.0003 13.5721 15.2954 13.8673C15.5906 14.1624 15.9666 14.3634 16.376 14.4448C16.7854 14.5263 17.2098 14.4845 17.5954 14.3247C17.981 14.165 18.3107 13.8945 18.5426 13.5474C18.7745 13.2004 18.8982 12.7923 18.8982 12.3749C18.8982 11.8152 18.6759 11.2784 18.2801 10.8826C17.8843 10.4868 17.3475 10.2645 16.7878 10.2645Z" fill="white"/>
<circle cx="16.5" cy="16.5" r="16" stroke="white"/>
</svg>
