<svg width="18" height="17" viewBox="0 0 18 17" fill="none" xmlns="http://www.w3.org/2000/svg">
<path d="M4.61874 10.2352L3.38824 15.388C3.33859 15.5945 3.41834 15.8105 3.58892 15.9362C3.76003 16.0613 3.9887 16.0735 4.17196 15.9647L8.7993 13.2169L13.4245 15.9647C13.508 16.0143 13.6014 16.0391 13.6944 16.0391C13.8048 16.0391 13.9146 16.0048 14.0076 15.9367C14.1781 15.811 14.2579 15.595 14.2082 15.3885L12.9777 10.2357L17.0622 6.77443C17.2254 6.63659 17.2893 6.41373 17.2238 6.2104C17.1588 6.00708 16.9771 5.8629 16.7643 5.84547L11.377 5.4008L9.28411 0.515743C9.20119 0.321397 9.01001 0.195705 8.79877 0.195705C8.58752 0.195705 8.39635 0.321397 8.31343 0.515743L6.21893 5.4008L0.833217 5.84495C0.620387 5.86237 0.438716 6.00655 0.373757 6.20987C0.308271 6.4132 0.372173 6.63606 0.53536 6.7739L4.61874 10.2352ZM6.62241 6.42693C6.81728 6.41109 6.98734 6.28856 7.06444 6.10848L8.79877 2.06365L10.531 6.10795C10.6081 6.28803 10.7781 6.41056 10.973 6.4264L15.406 6.79186L12.0467 9.63892C11.8946 9.76725 11.828 9.97058 11.8745 10.1644L12.8906 14.4184L9.06916 12.148C8.90334 12.0487 8.69579 12.0487 8.52996 12.148L4.70641 14.4189L5.7225 10.1644C5.76898 9.97058 5.70243 9.76725 5.55034 9.63892L2.19206 6.79186L6.62241 6.42693Z" fill="#231F20"/>
</svg>
