<svg width="23" height="23" viewBox="0 0 23 23" fill="none" xmlns="http://www.w3.org/2000/svg">
<path d="M8.94996 17.8999C11.1329 17.8999 13.1173 17.126 14.6652 15.8162L21.6109 22.7619C21.7696 22.9206 21.9681 23 22.1864 23C22.4047 23 22.6031 22.9206 22.7619 22.7619C23.0794 22.4443 23.0794 21.9284 22.7619 21.6109L15.8162 14.6652C17.1061 13.1173 17.8999 11.113 17.8999 8.94996C17.8999 4.00863 13.8913 0 8.94996 0C4.02847 0 0 4.02847 0 8.94996C0 13.8913 4.02847 17.8999 8.94996 17.8999ZM8.94996 1.62726C12.9983 1.62726 16.2726 4.92148 16.2726 8.94996C16.2726 12.9983 12.9983 16.2726 8.94996 16.2726C4.90164 16.2726 1.62726 12.9784 1.62726 8.94996C1.62726 4.92148 4.92148 1.62726 8.94996 1.62726Z" fill="white"/>
</svg>
